HIERARCHY
ROOT Hips
{
	OFFSET -0.001795 -0.223333 0.028219
	CHANNELS 6 Xposition Yposition Zposition Zrotation Yrotation Xrotation 
	JOINT LeftUpLeg
	{
		OFFSET 0.069520 -0.091406 -0.006815
		CHANNELS 3 Zrotation Yrotation Xrotation
		JOINT LeftLeg
		{
			OFFSET 0.034277 -0.375199 -0.004496
			CHANNELS 3 Zrotation Yrotation Xrotation
			JOINT LeftFoot
			{
				OFFSET -0.013596 -0.397961 -0.043693
				CHANNELS 3 Zrotation Yrotation Xrotation
				JOINT LeftToe
				{
					OFFSET 0.026358 -0.055791 0.119288
					CHANNELS 3 Zrotation Yrotation Xrotation
					End Site
					{
						OFFSET 0.000000 0.000000 0.000000
					}
				}
			}
		}
	}
	JOINT RightUpLeg
	{
		OFFSET -0.067670 -0.090522 -0.004320
		CHANNELS 3 Zrotation Yrotation Xrotation
		JOINT RightLeg
		{
			OFFSET -0.038290 -0.382569 -0.008850
			CHANNELS 3 Zrotation Yrotation Xrotation
			JOINT RightFoot
			{
				OFFSET 0.015774 -0.398415 -0.042312
				CHANNELS 3 Zrotation Yrotation Xrotation
				JOINT RightToe
				{
					OFFSET -0.025372 -0.048144 0.123348
					CHANNELS 3 Zrotation Yrotation Xrotation
					End Site
					{
						OFFSET 0.000000 0.000000 0.000000
					}
				}
			}
		}
	}
	JOINT Spine
	{
		OFFSET -0.002533 0.108963 -0.026696
		CHANNELS 3 Zrotation Yrotation Xrotation
		JOINT Spine1
		{
			OFFSET 0.005487 0.135180 0.001092
			CHANNELS 3 Zrotation Yrotation Xrotation
			JOINT Spine2
			{
				OFFSET 0.001457 0.052922 0.025425
				CHANNELS 3 Zrotation Yrotation Xrotation
				JOINT Neck
				{
					OFFSET -0.002778 0.213870 -0.042857
					CHANNELS 3 Zrotation Yrotation Xrotation
					JOINT Head
					{
						OFFSET 0.005152 0.064970 0.051349
						CHANNELS 3 Zrotation Yrotation Xrotation
						End Site
						{
							OFFSET 0.000000 0.000000 0.000000
						}
					}
				}
				JOINT LeftShoulder
				{
					OFFSET 0.078845 0.121749 -0.034090
					CHANNELS 3 Zrotation Yrotation Xrotation
					JOINT LeftArm
					{
						OFFSET 0.090977 0.030469 -0.008868
						CHANNELS 3 Zrotation Yrotation Xrotation
						JOINT LeftForeArm
						{
							OFFSET 0.259612 -0.012772 -0.027456
							CHANNELS 3 Zrotation Yrotation Xrotation
							JOINT LeftHand
							{
								OFFSET 0.249234 0.008986 -0.001171
								CHANNELS 3 Zrotation Yrotation Xrotation
								End Site
								{
									OFFSET 0.000000 0.000000 0.000000
								}
							}
						}
					}
				}
				JOINT RightShoulder
				{
					OFFSET -0.081759 0.118833 -0.038615
					CHANNELS 3 Zrotation Yrotation Xrotation
					JOINT RightArm
					{
						OFFSET -0.096012 0.032551 -0.009143
						CHANNELS 3 Zrotation Yrotation Xrotation
						JOINT RightForeArm
						{
							OFFSET -0.253742 -0.013329 -0.021401
							CHANNELS 3 Zrotation Yrotation Xrotation
							JOINT RightHand
							{
								OFFSET -0.255298 0.007772 -0.005559
								CHANNELS 3 Zrotation Yrotation Xrotation
								End Site
								{
									OFFSET 0.000000 0.000000 0.000000
								}
							}
						}
					}
				}
			}
		}
	}
}
MOTION
Frames: 15
Frame Time: 0.050000
0.000000 0.942304 0.000000 -1.844257 6.625905 -4.529183 -0.055865 1.371328 19.273974 2.695905 -0.987922 10.426962 -4.694573 1.299136 19.668296 0.000000 0.000000 0.000000 0.051917 1.872079 -20.967875 1.378595 0.003928 10.243324 -0.640991 -7.944280 24.897472 0.000000 0.000000 0.000000 8.285831 -1.460642 12.222004 -6.139918 2.114422 -29.997189 -2.292354 -5.504396 30.206354 8.827024 -7.475973 -9.145608 0.000000 0.000000 0.000000 -27.955052 -5.067739 2.259185 -43.759695 -5.381692 -6.332882 -17.349287 -42.229158 9.418250 0.000000 0.000000 0.000000 35.420221 -11.267825 -11.183924 51.676783 -17.097409 -14.698405 1.507834 16.181166 0.966147 0.000000 0.000000 0.000000 
-0.001654 0.951615 0.010490 -1.766814 6.205192 -4.823871 1.561414 1.069575 18.648720 1.247705 -1.410757 20.466041 -4.179280 3.515411 24.047270 0.000000 0.000000 0.000000 -0.060662 1.768527 -19.621401 2.148956 -0.147247 12.655250 -1.600180 -9.122539 22.764761 0.000000 0.000000 0.000000 8.575480 -1.252294 10.490914 -3.939769 1.689940 -29.136301 -3.529005 -4.522992 30.819318 8.977822 -7.577615 -8.583005 0.000000 0.000000 0.000000 -25.877826 -2.342134 0.366407 -45.492896 -6.213320 -6.265091 -22.018067 -40.851208 10.969219 0.000000 0.000000 0.000000 31.875072 -11.732594 -10.349987 53.603237 -16.071333 -14.994816 6.341391 12.034914 1.107672 0.000000 0.000000 0.000000 
-0.003544 0.965692 0.016176 -1.506692 3.822333 -4.914362 1.310463 0.952762 13.812202 -0.028303 -1.597042 31.100056 -3.831942 5.071525 28.953909 0.000000 0.000000 0.000000 1.929160 1.842683 -16.397202 1.157385 0.171851 13.951388 -1.802871 -9.732577 21.712848 0.000000 0.000000 0.000000 9.238786 -1.300625 10.655452 -3.659324 1.638169 -26.531043 -3.428983 -1.288097 27.730936 8.623002 -6.344754 -10.835392 0.000000 0.000000 0.000000 -26.191470 -4.757768 1.115564 -44.803287 -4.074144 -6.389910 -20.965883 -38.790166 9.597039 0.000000 0.000000 0.000000 30.024912 -10.913327 -8.778105 55.420814 -13.953025 -14.441253 4.947345 9.400931 0.726323 0.000000 0.000000 0.000000 
-0.005301 0.979990 0.014811 -1.729036 3.661049 -5.389739 2.725336 0.374658 6.615460 -2.830322 -0.993670 42.049060 -2.242974 7.078295 29.759734 0.000000 0.000000 0.000000 3.042862 1.554881 -12.629277 1.316432 0.138813 14.174414 -1.633471 -9.673371 22.679517 0.000000 0.000000 0.000000 8.831324 -1.295471 11.005602 -2.314342 1.326068 -27.034273 -3.808549 0.762579 28.530717 8.581183 -6.073048 -10.659657 0.000000 0.000000 0.000000 -25.810939 -4.059922 0.009125 -46.797696 -4.019705 -6.498439 -19.850739 -34.872081 8.032086 0.000000 0.000000 0.000000 31.865313 -9.766618 -7.501497 53.492681 -8.648353 -12.014070 6.663966 8.200341 0.710047 0.000000 0.000000 0.000000 
-0.006413 0.994992 0.009825 -1.280176 3.105135 -5.883419 2.541772 -0.159207 -2.080140 -5.684443 0.457553 48.805841 1.641153 10.894414 26.740448 0.000000 0.000000 0.000000 3.361097 0.854067 -6.749690 0.755050 0.243023 11.958535 -0.619595 -8.328063 23.030463 0.000000 0.000000 0.000000 7.084884 -1.375248 13.397932 -1.314244 1.090381 -28.044369 -2.228182 3.518117 28.209317 8.458843 -5.687580 -10.331275 0.000000 0.000000 0.000000 -27.146500 -4.952488 -0.423336 -47.071819 -1.810628 -7.037788 -18.156656 -29.882129 6.143286 0.000000 0.000000 0.000000 31.726241 -7.896112 -5.179576 52.064959 -4.498731 -10.319735 8.514959 10.352398 1.091472 0.000000 0.000000 0.000000 
-0.007071 1.005766 0.004236 -0.441899 2.134917 -5.702271 2.577289 -0.744211 -10.422352 -8.037461 2.135055 47.965803 3.661642 12.669993 23.057062 0.000000 0.000000 0.000000 2.555058 0.130440 -1.227374 0.688402 0.197380 8.919450 2.100304 -4.331832 22.830111 0.000000 0.000000 0.000000 5.613060 -1.268059 14.198545 -2.833039 1.387359 -28.300274 0.000298 4.727820 28.487173 8.179125 -5.351710 -10.534052 0.000000 0.000000 0.000000 -27.544711 -4.857992 -0.697630 -47.548133 -0.360681 -7.620475 -17.768506 -25.378066 5.052001 0.000000 0.000000 0.000000 31.673326 -6.434171 -3.895831 51.235727 -0.558009 -8.764505 8.136853 13.739058 1.504784 0.000000 0.000000 0.000000 
-0.007340 1.007664 -0.000975 0.292185 0.712510 -5.433742 2.414193 -1.196661 -16.554224 -8.439287 2.489204 40.051066 5.167927 14.529683 23.857023 0.000000 0.000000 0.000000 2.521490 -0.495639 3.791903 -0.843111 0.364965 5.839536 3.877811 -1.539313 21.882897 0.000000 0.000000 0.000000 4.112297 -1.175485 15.539979 -2.947618 1.355909 -29.758629 1.023473 7.533534 29.025103 8.622272 -5.635687 -9.689747 0.000000 0.000000 0.000000 -27.137945 -4.084997 -1.795179 -48.291626 2.300723 -8.615557 -16.319912 -22.062423 4.000190 0.000000 0.000000 0.000000 31.216145 -6.436344 -3.134930 51.061992 3.882428 -7.217502 8.611231 18.698096 2.328842 0.000000 0.000000 0.000000 
-0.007024 1.000331 -0.005452 0.358946 -0.577523 -5.583574 1.878287 -1.414936 -18.869494 -5.288121 0.976826 26.677221 5.506364 14.830763 24.409900 0.000000 0.000000 0.000000 2.408211 -1.037380 8.347656 -1.643461 0.409019 4.237261 4.813709 0.299278 20.361277 0.000000 0.000000 0.000000 3.747871 -1.216050 17.080544 -3.671205 1.446820 -32.324753 2.109648 8.892687 32.275507 8.505491 -4.881564 -12.581582 0.000000 0.000000 0.000000 -28.512913 -3.558797 -2.376663 -46.557293 3.594840 -9.009534 -14.887317 -19.592771 3.296377 0.000000 0.000000 0.000000 31.849189 -5.215781 -1.878327 48.821398 9.033011 -5.598917 8.023633 24.523184 3.179227 0.000000 0.000000 0.000000 
-0.005810 0.985753 -0.009135 0.012185 -1.748749 -5.707900 1.981411 -1.344933 -18.704952 -2.264913 0.137263 10.411690 5.658415 14.790898 24.176161 0.000000 0.000000 0.000000 2.465803 -1.399008 11.482498 -1.567731 0.421031 4.634682 6.111726 4.137336 16.505133 0.000000 0.000000 0.000000 3.628601 -1.166110 16.945569 -4.903801 1.699950 -29.116589 2.920922 9.696918 28.881585 8.413592 -4.849125 -11.771152 0.000000 0.000000 0.000000 -28.482871 -3.587720 -2.541306 -45.763844 6.495141 -9.480124 -14.089287 -17.039045 2.689299 0.000000 0.000000 0.000000 30.733852 -5.058246 -1.976189 48.956909 11.186165 -4.246732 7.395501 29.672279 3.843582 0.000000 0.000000 0.000000 
-0.004045 0.967176 -0.011731 -0.359635 -2.404560 -5.705355 1.958195 -1.369629 -19.350949 -0.549713 0.023008 1.455743 4.662342 13.164229 21.888362 0.000000 0.000000 0.000000 2.245134 -1.595181 13.553219 -1.474131 0.547049 7.067999 4.922845 4.326487 11.830060 0.000000 0.000000 0.000000 3.772520 -1.157751 16.686249 -7.103349 2.157507 -28.764472 4.250823 8.993477 28.845140 8.239365 -4.897322 -11.740795 0.000000 0.000000 0.000000 -30.812691 -3.856902 -2.279616 -43.924092 8.032152 -9.623153 -11.983561 -14.713702 2.060951 0.000000 0.000000 0.000000 31.215196 -4.017143 -1.696681 46.543309 14.805722 -2.789180 6.757237 31.761310 3.878914 0.000000 0.000000 0.000000 
-0.001568 0.951827 -0.011799 -1.003720 -3.752370 -6.393440 2.605321 -1.230392 -19.870772 -0.889731 0.047040 2.467264 3.880708 12.291312 24.749795 0.000000 0.000000 0.000000 2.162224 -1.805724 15.996982 -2.298847 0.860638 9.531682 4.274962 4.001882 9.787944 0.000000 0.000000 0.000000 3.300710 -1.067638 16.717734 -5.860107 1.845921 -28.854163 4.685715 10.067657 29.409344 8.449800 -4.741260 -13.102295 0.000000 0.000000 0.000000 -32.688200 -4.130554 -2.498415 -42.302714 9.529846 -9.647489 -11.565801 -13.010120 1.758871 0.000000 0.000000 0.000000 31.393891 -3.802452 -1.460006 44.656265 16.371029 -2.311871 5.363602 33.848257 3.756359 0.000000 0.000000 0.000000 
0.002065 0.944026 -0.007370 -0.512382 -4.527361 -6.045455 1.527486 -1.434036 -20.393734 -1.923550 0.152024 6.675393 4.960709 14.632663 36.684132 0.000000 0.000000 0.000000 0.757021 -1.621912 16.856252 -2.633936 1.321960 14.555402 3.856300 2.700190 10.372010 0.000000 0.000000 0.000000 3.019822 -0.943505 15.509411 -7.874015 2.254996 -29.130953 5.845717 9.549716 29.797561 8.949290 -5.674278 -11.414451 0.000000 0.000000 0.000000 -32.081303 -4.197473 -1.877707 -43.551119 9.800906 -10.213420 -9.778684 -11.905908 1.440075 0.000000 0.000000 0.000000 30.500823 -3.345031 -1.445182 45.594694 15.402486 -2.554423 6.237868 35.751651 4.300971 0.000000 0.000000 0.000000 
0.006746 0.945666 0.000749 0.091157 -5.248048 -5.525365 0.747416 -1.540694 -20.191467 -2.356015 0.237015 11.333761 5.461676 15.510330 42.660987 0.000000 0.000000 0.000000 -0.553369 -1.298087 16.030807 -2.945351 2.034393 21.332439 4.399915 1.038872 15.309147 0.000000 0.000000 0.000000 2.283059 -0.667132 12.003098 -6.646647 2.028321 -26.996838 4.576837 11.570717 29.376389 8.601668 -5.374889 -10.125708 0.000000 0.000000 0.000000 -31.565720 -3.867950 -2.693688 -42.012988 10.348557 -9.759068 -9.910812 -12.105832 1.455645 0.000000 0.000000 0.000000 31.718386 -3.510922 -1.059621 46.006366 13.600867 -3.355755 7.012838 34.998820 4.530536 0.000000 0.000000 0.000000 
0.012359 0.953812 0.009254 0.755385 -5.058022 -6.537388 -0.784496 -1.563864 -16.860149 -2.633143 0.310929 13.639518 5.234579 14.904431 37.558991 0.000000 0.000000 0.000000 -1.203698 -1.040188 13.819499 -2.405359 2.825017 30.991444 5.103704 -0.850838 22.317651 0.000000 0.000000 0.000000 1.746535 -0.602312 11.904481 -6.476925 2.033264 -26.174942 3.046798 11.803404 27.657452 9.420692 -6.446561 -8.287030 0.000000 0.000000 0.000000 -30.167517 -4.521504 -2.238565 -42.863378 9.565927 -9.585693 -9.167882 -11.855700 1.338077 0.000000 0.000000 0.000000 32.351827 -4.346330 -1.673829 47.397104 10.891475 -4.214809 8.197944 30.295106 4.068843 0.000000 0.000000 0.000000 
0.017379 0.962966 0.013285 1.162617 -3.889373 -7.132412 -1.790133 -1.338366 -12.655058 -2.747073 0.298412 12.556327 2.663003 11.180671 27.651176 0.000000 0.000000 0.000000 -2.192217 -0.619296 9.033257 -0.927334 3.092673 41.464388 3.774175 -4.986374 29.295504 0.000000 0.000000 0.000000 1.520743 -0.599131 12.221243 -7.236996 2.317682 -24.737245 2.170012 9.168532 25.770015 9.210991 -6.217689 -9.286885 0.000000 0.000000 0.000000 -29.743517 -3.664284 -2.082447 -42.923868 7.024650 -8.812155 -8.795658 -12.346181 1.370483 0.000000 0.000000 0.000000 31.972258 -3.993703 -2.242425 49.355332 6.546687 -5.503624 8.469886 27.320556 3.540935 0.000000 0.000000 0.000000 
